Coordinates
version=1
nRows=16
nColumns=36
inDegrees=yes

Units are S.I. units (second, meters, Newtons, ...)
If the header above contains a line with 'inDegrees', this indicates whether rotational values are in degrees (yes) or radians (no).

endheader
time	pelvis_tilt	pelvis_list	pelvis_rotation	pelvis_tx	pelvis_ty	pelvis_tz	hip_flexion_r	hip_adduction_r	hip_rotation_r	knee_angle_r	knee_angle_r_beta	ankle_angle_r	subtalar_angle_r	mtp_angle_r	hip_flexion_l	hip_adduction_l	hip_rotation_l	knee_angle_l	knee_angle_l_beta	ankle_angle_l	subtalar_angle_l	mtp_angle_l	lumbar_extension	lumbar_bending	lumbar_rotation	arm_flex_r	arm_add_r	arm_rot_r	elbow_flex_r	pro_sup_r	arm_flex_l	arm_add_l	arm_rot_l	elbow_flex_l	pro_sup_l
      1.38000000	    -13.10177174	     -1.62380931	      1.02779177	     -0.27554051	      0.72508767	     -0.58951445	     70.14699475	     -3.66276360	      1.18362109	     90.05107179	      1.57168770	     25.67405930	     -9.38809822	     -7.45973036	     69.90151023	     -2.98118504	      7.96109732	     89.01941484	      1.55368189	     23.86910220	    -11.41333177	     -7.45973036	    -25.09634449	     -3.04695383	     -0.09048717	      7.36345292	    -15.14044216	    -16.09538436	    126.72796433	    105.05860418	     35.62136258	    -31.13255805	      3.29100817	    129.10641995	    112.95578142
      1.39000000	    -13.56790063	     -1.76537297	      0.83211423	     -0.27471279	      0.71811809	     -0.58955825	     71.78642923	     -3.58229471	      1.12842608	     91.67488344	      1.60002856	     25.03068958	     -9.27483363	     -7.46026684	     71.34395582	     -3.34657878	      7.87295188	     90.53531270	      1.58013930	     23.93831739	    -11.40857706	     -7.46026684	    -25.93841568	     -3.15899610	     -0.01693994	     11.10721928	    -15.76144559	    -13.06399150	    125.66823094	    104.99130512	     39.19391286	    -29.89819616	      5.86007311	    127.19603525	    112.93177628
      1.40000000	    -13.83241557	     -2.05512890	      0.49137577	     -0.27380414	      0.71240522	     -0.58938982	     72.90086813	     -3.26110635	      0.97113689	     92.89256133	      1.62128105	     24.71169574	     -9.19044530	     -7.46061315	     72.29869809	     -3.91829231	      7.92628223	     91.75021056	      1.60134326	     24.33324952	    -11.42397667	     -7.46061315	    -27.03048989	     -3.08793573	      0.25294485	     14.83698212	    -16.38661790	    -10.27304996	    125.01899767	    105.04621859	     42.52038097	    -28.58557697	      7.86059027	    125.68841896	    112.93846460
      1.41000000	    -14.02646944	     -2.45628629	      0.14470552	     -0.27278425	      0.70757326	     -0.58916019	     73.57480916	     -2.85006961	      0.70325288	     93.70540421	      1.63546783	     24.84848889	     -9.15332725	     -7.46227194	     72.97724117	     -4.51327977	      8.24722535	     92.77909281	      1.61930065	     25.60528979	    -10.47074804	     -7.46227194	    -28.11108785	     -2.93629038	      0.74130920	     18.33597810	    -16.79774086	     -8.21996895	    124.54993181	    105.09577181	     45.78963592	    -27.34175766	     10.30879854	    124.30658200	    113.05747036
      1.42000000	    -14.50848575	     -2.83119197	     -0.20478066	     -0.27161985	      0.70288849	     -0.58892289	     74.27081682	     -2.44800182	      0.43084453	     94.20226510	      1.64413969	     25.31492321	     -9.13172871	     -7.46257213	     73.84593794	     -5.01964082	      8.60551798	     93.58897352	      1.63343573	     26.07482226	    -10.57944246	     -7.46257213	    -28.71640801	     -2.74940546	      0.98328497	     21.58508736	    -16.81784651	     -6.17059116	    123.98569326	    105.16876295	     48.23489505	    -26.15790823	     11.72281128	    123.46968349	    113.10555165
      1.43000000	    -15.09830934	     -3.08534433	     -0.41882794	     -0.27019568	      0.69876798	     -0.58914853	     74.79077676	     -2.27119594	      0.23318342	     94.42675035	      1.64805770	     26.32112591	     -9.01556267	     -7.46292580	     74.70863219	     -5.27596114	      8.88144358	     94.24268912	      1.64484522	     26.70956687	    -10.46330798	     -7.46292580	    -29.08453986	     -2.60043945	      0.97863082	     24.44271707	    -16.49213843	     -4.56621677	    123.24698371	    105.19621241	     50.26720050	    -25.15484105	     13.12926428	    122.87638626	    113.17061804
      1.44000000	    -15.76788703	     -3.07853016	     -0.41345359	     -0.26852290	      0.69538491	     -0.59015586	     75.25734706	     -2.60661360	      0.10889499	     94.55374362	      1.65027415	     27.73708243	     -8.57801188	     -7.46333590	     75.47114678	     -5.05000989	      8.98755343	     94.68574365	      1.65257798	     27.40872905	    -10.28292134	     -7.46333590	    -29.31703999	     -2.57794525	      0.64889775	     26.78174163	    -15.82190144	     -3.57704361	    122.54143622	    105.15442489	     51.98638696	    -24.23519668	     14.22283804	    122.53441803	    113.24571928
      1.45000000	    -16.42142124	     -2.80313081	     -0.23872287	     -0.26665622	      0.69278033	     -0.59164097	     75.63861334	     -3.34438392	      0.23854416	     94.69938638	      1.65281609	     30.14446140	     -6.38797060	     -7.46455161	     76.07430084	     -4.58223880	      8.71496618	     94.93468642	      1.65692285	     28.25401546	     -9.87786039	     -7.46455161	    -29.56156047	     -2.70512842	      0.03131726	     28.65752096	    -14.95560101	     -3.12828952	    122.05082028	    104.92837145	     53.50378997	    -23.43637632	     15.08873244	    122.39723761	    113.43661040
      1.46000000	    -17.22138622	     -2.65508439	     -0.05482379	     -0.26480485	      0.69041659	     -0.59278257	     76.10144916	     -3.97740679	      0.14917335	     94.62287841	      1.65148078	     31.33757307	     -6.19670974	     -7.46492427	     76.85147231	     -4.17235098	      8.58866702	     95.12988921	      1.66032978	     28.63932087	     -9.99387175	     -7.46492427	    -29.50488336	     -2.74040003	     -0.40478564	     29.99073029	    -14.15645372	     -3.11204737	    121.60708340	    104.82039705	     54.87001769	    -22.76130466	     15.96084429	    122.10314211	    113.52793658
      1.47000000	    -17.90321757	     -2.51371485	     -0.05075299	     -0.26285974	      0.68873450	     -0.59321363	     76.39331401	     -4.29560988	      0.20186377	     94.51033231	      1.64951648	     33.30085170	     -4.58338884	     -7.46603102	     77.42864299	     -4.02478799	      8.43021440	     95.24538404	      1.66234555	     28.99374260	     -9.93754718	     -7.46603102	    -29.57256205	     -2.96403302	     -0.44164855	     30.83783920	    -13.52943593	     -3.65370450	    121.67041223	    104.60431966	     56.41882907	    -22.09704448	     17.01744137	    121.73700135	    113.65544634
      1.48000000	    -18.54119223	     -2.56548547	     -0.04800792	     -0.26090865	      0.68791256	     -0.59345145	     76.55517364	     -4.40407303	      0.03238518	     94.16871904	      1.64355420	     34.21686629	     -4.55537510	     -7.46635089	     77.94948180	     -3.92563217	      8.55735183	     95.29221463	      1.66316290	     29.12578984	    -10.05615488	     -7.46635089	    -29.61458691	     -2.89131053	     -0.59138013	     31.82745193	    -12.84202759	     -4.00144818	    121.44670886	    104.52814447	     57.45976353	    -21.74735793	     17.50265503	    121.58030389	    113.68486041
      1.49000000	    -18.93478060	     -2.53428320	     -0.11209532	     -0.25897491	      0.68812119	     -0.59358665	     76.52740267	     -4.45919478	     -0.05342959	     93.88042982	      1.63852260	     35.06122259	     -4.29434468	     -7.46673860	     78.15353124	     -3.85935942	      8.58559842	     95.24485441	      1.66233630	     29.05640396	    -10.13847915	     -7.46673860	    -29.88029832	     -2.90045492	     -0.66914278	     32.77591345	    -12.38061366	     -4.31147230	    121.32377870	    104.47847336	     58.46812298	    -21.50629491	     17.78071979	    121.27074510	    113.67017738
      1.50000000	    -19.38007765	     -2.45151647	     -0.26041580	     -0.25710992	      0.68867946	     -0.59367285	     76.68543294	     -4.49166389	     -0.13881181	     93.62570487	      1.63407681	     35.19519209	     -4.23634373	     -7.46680700	     78.38935050	     -3.85754198	      8.54083472	     95.17282655	      1.66107918	     29.03818466	    -10.14863657	     -7.46680700	    -30.03628944	     -2.92387717	     -0.73580983	     33.62961625	    -12.23412639	     -4.35919070	    121.37717187	    104.47639128	     59.17610484	    -21.33092507	     17.67364558	    121.06772762	    113.63573388
      1.51000000	    -19.44428536	     -2.41096804	     -0.41123550	     -0.25533887	      0.69022896	     -0.59371889	     76.45677242	     -4.45210297	     -0.21479533	     93.40468407	      1.63021927	     35.53287959	     -4.00109537	     -7.46714833	     78.18726955	     -3.89035567	      8.54992062	     95.04155032	      1.65878798	     28.73726410	    -10.23175411	     -7.46714833	    -30.50220428	     -2.96264828	     -0.78109426	     34.52189031	    -12.22879280	     -4.36126459	    121.13704409	    104.44597682	     60.16502977	    -21.29383895	     17.77378833	    120.31597171	    113.54664779
      1.52000000	    -19.59220802	     -2.39482544	     -0.54950310	     -0.25356234	      0.69201546	     -0.59392232	     76.32626993	     -4.45216661	     -0.30441686	     93.13564742	      1.62552370	     35.50128581	     -3.76362281	     -7.46741547	     78.01331579	     -3.88215658	      8.57228419	     94.83042490	      1.65510315	     28.58138470	    -10.38084612	     -7.46741547	    -30.76403997	     -2.95674053	     -0.80324217	     35.21751550	    -12.44504870	     -4.31161608	    121.06421635	    104.42998568	     60.87587927	    -21.24999900	     17.79771845	    119.65085670	    113.47026823
      1.53000000	    -19.68119249	     -2.39415757	     -0.68350327	     -0.25171945	      0.69437062	     -0.59410559	     76.07775864	     -4.43306343	     -0.36181009	     92.77998064	      1.61931614	     35.34311385	     -3.51837868	     -7.46770412	     77.68681131	     -3.88583662	      8.58428730	     94.49682914	      1.64928080	     28.44198220	    -10.61057448	     -7.46770412	    -30.93748181	     -2.95448748	     -0.80819284	     35.78310579	    -12.75734824	     -4.28304354	    120.95489190	    104.41855579	     61.41573559	    -21.20351114	     17.84323028	    118.88326872	    113.39952190
